<?xml version="1.0" standalone="no"?><!DOCTYPE svg PUBLIC "-//W3C//DTD SVG 1.1//EN" "http://www.w3.org/Graphics/SVG/1.1/DTD/svg11.dtd"><svg t="1675515084848" class="icon" viewBox="0 0 1024 1024" version="1.1" xmlns="http://www.w3.org/2000/svg" p-id="25453" id="mx_n_1675515084849" xmlns:xlink="http://www.w3.org/1999/xlink" width="200" height="200"><path d="M395.4176 480.1024H198.7584c-46.5408 0-84.4288-37.888-84.4288-84.4288V199.0144c0-46.5408 37.888-84.4288 84.4288-84.4288h196.6592c46.5408 0 84.4288 37.888 84.4288 84.4288v196.6592c0 46.5408-37.888 84.4288-84.4288 84.4288zM198.7584 165.7856c-18.3296 0-33.2288 14.8992-33.2288 33.2288v196.6592c0 18.3296 14.8992 33.2288 33.2288 33.2288h196.6592c18.3296 0 33.2288-14.8992 33.2288-33.2288V199.0144c0-18.3296-14.8992-33.2288-33.2288-33.2288H198.7584zM832.3584 480.1024h-196.6592c-46.5408 0-84.4288-37.888-84.4288-84.4288V199.0144c0-46.5408 37.888-84.4288 84.4288-84.4288h196.6592c46.5408 0 84.4288 37.888 84.4288 84.4288v196.6592c0 46.5408-37.888 84.4288-84.4288 84.4288z m-196.6592-314.3168c-18.3296 0-33.2288 14.8992-33.2288 33.2288v196.6592c0 18.3296 14.8992 33.2288 33.2288 33.2288h196.6592c18.3296 0 33.2288-14.8992 33.2288-33.2288V199.0144c0-18.3296-14.8992-33.2288-33.2288-33.2288h-196.6592zM395.4176 909.4144H198.7584c-46.5408 0-84.4288-37.888-84.4288-84.4288v-196.6592c0-46.5408 37.888-84.4288 84.4288-84.4288h196.6592c46.5408 0 84.4288 37.888 84.4288 84.4288v196.6592c0 46.5408-37.888 84.4288-84.4288 84.4288z m-196.6592-314.3168c-18.3296 0-33.2288 14.8992-33.2288 33.2288v196.6592c0 18.3296 14.8992 33.2288 33.2288 33.2288h196.6592c18.3296 0 33.2288-14.8992 33.2288-33.2288v-196.6592c0-18.3296-14.8992-33.2288-33.2288-33.2288H198.7584z" fill="#231815" p-id="25454"></path><path d="M832.3584 909.4144h-196.6592c-46.5408 0-84.4288-37.888-84.4288-84.4288v-196.6592c0-46.5408 37.888-84.4288 84.4288-84.4288h196.6592c46.5408 0 84.4288 37.888 84.4288 84.4288v196.6592c0 46.5408-37.888 84.4288-84.4288 84.4288z m-196.6592-314.3168c-18.3296 0-33.2288 14.8992-33.2288 33.2288v196.6592c0 18.3296 14.8992 33.2288 33.2288 33.2288h196.6592c18.3296 0 33.2288-14.8992 33.2288-33.2288v-196.6592c0-18.3296-14.8992-33.2288-33.2288-33.2288h-196.6592z" fill="#FF3355" p-id="25455"></path></svg>