<?xml version="1.0" standalone="no"?><!DOCTYPE svg PUBLIC "-//W3C//DTD SVG 1.1//EN" "http://www.w3.org/Graphics/SVG/1.1/DTD/svg11.dtd"><svg t="1675515430201" class="icon" viewBox="0 0 1024 1024" version="1.1" xmlns="http://www.w3.org/2000/svg" p-id="96549" xmlns:xlink="http://www.w3.org/1999/xlink" width="200" height="200"><path d="M924.294737 185.936842H754.526316v-21.557895c0-21.557895-16.168421-37.726316-37.726316-37.726315H307.2c-21.557895 0-37.726316 16.168421-37.726316 37.726315v21.557895H99.705263C64.673684 185.936842 35.031579 215.578947 35.031579 250.610526v598.231579c0 35.031579 29.642105 64.673684 64.673684 64.673684h824.589474c35.031579 0 64.673684-29.642105 64.673684-64.673684V250.610526c0-37.726316-29.642105-64.673684-64.673684-64.673684z m-207.494737-21.557895v80.842106L307.2 242.526316V161.684211l409.6 2.694736z m234.442105 684.463158c0 16.168421-10.778947 26.947368-26.947368 26.947369H99.705263c-13.473684 0-26.947368-10.778947-26.947368-26.947369V250.610526c0-16.168421 10.778947-26.947368 26.947368-26.947368H269.473684V242.526316c0 21.557895 16.168421 37.726316 37.726316 37.726316h409.6c21.557895 0 37.726316-16.168421 37.726316-37.726316v-18.863158h169.768421c13.473684 0 26.947368 10.778947 26.947368 26.947368v598.231579z" fill="#ffbb12" p-id="96550"></path><path d="M398.821053 630.568421c-29.642105-8.084211-43.115789-24.252632-45.810527-24.252632v-5.389473l-16.168421-8.084211 18.863158 5.389474c2.694737-5.389474 5.389474-13.473684 8.084211-18.863158 5.389474-2.694737 8.084211-8.084211 13.473684-13.473684 13.473684-18.863158 5.389474-35.031579 2.694737-43.11579 2.694737-10.778947 5.389474-24.252632 5.389473-40.421052-2.694737-24.252632-24.252632-61.978947-78.147368-61.978948-51.2 0-78.147368 32.336842-78.147368 61.978948 0 16.168421 2.694737 29.642105 5.389473 40.421052-5.389474 8.084211-10.778947 24.252632 0 43.11579 5.389474 8.084211 10.778947 13.473684 13.473684 16.168421l8.084211 16.168421v2.694737l2.694737 2.694737v5.389473s-13.473684 18.863158-45.810526 24.252632c-43.115789 10.778947-64.673684 67.368421-64.673685 105.094737 0 13.473684 10.778947 24.252632 24.252632 24.252631h272.168421c13.473684 0 24.252632-10.778947 24.252632-24.252631-5.389474-37.726316-24.252632-97.010526-70.063158-107.789474z m-215.578948 91.621053c5.389474-24.252632 18.863158-51.2 35.031579-53.894737 43.115789-10.778947 64.673684-37.726316 67.368421-40.421053 8.084211-8.084211 8.084211-18.863158 8.084211-26.947368 0-5.389474-2.694737-10.778947-5.389474-16.168421 0 0-2.694737-2.694737-2.694737-5.389474-2.694737-2.694737-5.389474-8.084211-5.389473-10.778947-2.694737-5.389474-5.389474-13.473684-8.084211-16.168421l-2.694737-2.694737c-2.694737-2.694737-2.694737-2.694737-5.389473-8.084211 0 0 2.694737-5.389474 2.694736-8.08421l2.694737-5.389474c2.694737-2.694737 2.694737-10.778947 0-13.473684-2.694737-8.084211-5.389474-21.557895-5.389473-35.031579 0-10.778947 10.778947-26.947368 40.421052-26.947369 32.336842 0 40.421053 18.863158 40.421053 26.947369 0 13.473684-2.694737 24.252632-5.389474 35.031579 0 5.389474 0 10.778947 2.694737 16.168421l2.694737 5.389474c0 2.694737 2.694737 5.389474 2.694737 5.389473-2.694737 5.389474-5.389474 5.389474-8.084211 8.084211l-2.694737 2.694737c-2.694737 2.694737-8.084211 8.084211-8.08421 16.168421 0 2.694737-2.694737 5.389474-5.389474 13.473684l-2.694737 5.389474c0 2.694737-5.389474 8.084211-5.389473 16.168421s0 18.863158 8.08421 26.947368c2.694737 2.694737 21.557895 29.642105 67.368421 40.421053 16.168421 2.694737 29.642105 29.642105 35.031579 53.894737h-242.526316zM862.315789 460.8H547.031579c-10.778947 0-18.863158 8.084211-18.863158 18.863158s8.084211 18.863158 18.863158 18.863158H862.315789c10.778947 0 18.863158-8.084211 18.863158-18.863158s-10.778947-18.863158-18.863158-18.863158zM862.315789 571.284211H547.031579c-10.778947 0-18.863158 8.084211-18.863158 18.863157s8.084211 18.863158 18.863158 18.863158H862.315789c10.778947 0 18.863158-8.084211 18.863158-18.863158s-10.778947-18.863158-18.863158-18.863157zM703.326316 681.768421h-156.294737c-10.778947 0-18.863158 8.084211-18.863158 18.863158s8.084211 18.863158 18.863158 18.863158h156.294737c10.778947 0 18.863158-8.084211 18.863158-18.863158s-8.084211-18.863158-18.863158-18.863158z" fill="#ffbb12" p-id="96551"></path></svg>